<svg width="40" height="40" viewBox="0 0 40 40" fill="none" xmlns="http://www.w3.org/2000/svg">
<path fill-rule="evenodd" clip-rule="evenodd" d="M8.75 20C8.75 25.5625 12.8125 30.1875 18.125 31.125L18.1877 31.0748C18.1668 31.0708 18.1459 31.0667 18.125 31.0625V23.125H15.3125V20H18.125V17.5C18.125 14.6875 19.9375 13.125 22.5 13.125C23.3125 13.125 24.1875 13.25 25 13.375V16.25H23.5625C22.1875 16.25 21.875 16.9375 21.875 17.8125V20H24.875L24.375 23.125H21.875V31.0625C21.8541 31.0667 21.8332 31.0708 21.8123 31.0748L21.875 31.125C27.1875 30.1875 31.25 25.5625 31.25 20C31.25 13.8125 26.1875 8.75 20 8.75C13.8125 8.75 8.75 13.8125 8.75 20Z" fill="#2677BC"/>
</svg>
