<svg width="20" height="20" viewBox="0 0 20 20" fill="none" xmlns="http://www.w3.org/2000/svg">
<path fill-rule="evenodd" clip-rule="evenodd" d="M10 12.9167C9.78667 12.9167 9.57334 12.835 9.41084 12.6725L6.0775 9.33921C5.75167 9.01338 5.75167 8.48671 6.0775 8.16088C6.40334 7.83505 6.93 7.83505 7.25584 8.16088L10.01 10.915L12.7542 8.26505C13.0867 7.94588 13.6125 7.95505 13.9325 8.28588C14.2525 8.61671 14.2433 9.14505 13.9125 9.46421L10.5792 12.6825C10.4167 12.8392 10.2083 12.9167 10 12.9167" fill="#DB4746"/>
<mask id="mask0_1003_1020" style="mask-type:luminance" maskUnits="userSpaceOnUse" x="5" y="7" width="10" height="6">
<path fill-rule="evenodd" clip-rule="evenodd" d="M10 12.9167C9.78667 12.9167 9.57334 12.835 9.41084 12.6725L6.0775 9.33921C5.75167 9.01338 5.75167 8.48671 6.0775 8.16088C6.40334 7.83505 6.93 7.83505 7.25584 8.16088L10.01 10.915L12.7542 8.26505C13.0867 7.94588 13.6125 7.95505 13.9325 8.28588C14.2525 8.61671 14.2433 9.14505 13.9125 9.46421L10.5792 12.6825C10.4167 12.8392 10.2083 12.9167 10 12.9167" fill="white"/>
</mask>
<g mask="url(#mask0_1003_1020)">
<rect width="20" height="20" fill="#DB4746"/>
</g>
</svg>
